# xmcd
#
# Track frame offsets:
# 150
# 17301
# 33890
# 48097
# 61934
# 78554
# 93632
# 110258
# 130730
# 147617
# 165419
# 181010
#
# Disc length: 2606 seconds
#
# Revision: 2
# Processed by: cddbd v1.5.2PL0 Copyright (c) Steve Scherf et al.
# Submitted via: Easy CD Ripper 1.45
#
DISCID=8c0a2c0c
DTITLE=Beccy Cole - Beccy Cole
DYEAR=1997
DGENRE=Country
TTITLE0=Kiss Me Where I Stand
TTITLE1=Rest In Pieces
TTITLE2=Strong Enough To Bend
TTITLE3=Wild Ones
TTITLE4=Big Girls
TTITLE5=Skip A Stone
TTITLE6=Guitar Talk
TTITLE7=Goin' Gone
TTITLE8=Bad News For The Blues
TTITLE9=Can I Trade Him In
TTITLE10=Cool World
TTITLE11=Come As You Are
EXTD=
EXTT0=
EXTT1=
EXTT2=
EXTT3=
EXTT4=
EXTT5=
EXTT6=
EXTT7=
EXTT8=
EXTT9=
EXTT10=
EXTT11=
PLAYORDER=
